<svg width="14" height="15" viewBox="0 0 14 15" fill="none" xmlns="http://www.w3.org/2000/svg">
<g clip-path="url(#clip0_101_3106)">
<path d="M9.49701 7.07221C9.53775 7.11285 9.57007 7.16113 9.59213 7.21428C9.61419 7.26743 9.62554 7.32441 9.62554 7.38196C9.62554 7.4395 9.61419 7.49649 9.59213 7.54964C9.57007 7.60279 9.53775 7.65107 9.49701 7.69171L6.87201 10.3167C6.83137 10.3575 6.78309 10.3898 6.72994 10.4118C6.67678 10.4339 6.6198 10.4452 6.56226 10.4452C6.50471 10.4452 6.44773 10.4339 6.39458 10.4118C6.34142 10.3898 6.29315 10.3575 6.25251 10.3167L4.94001 9.00421C4.89933 8.96353 4.86706 8.91524 4.84505 8.86209C4.82303 8.80895 4.8117 8.75198 4.8117 8.69446C4.8117 8.63693 4.82303 8.57997 4.84505 8.52682C4.86706 8.47368 4.89933 8.42538 4.94001 8.38471C5.02216 8.30256 5.13358 8.25641 5.24976 8.25641C5.30728 8.25641 5.36424 8.26774 5.41739 8.28975C5.47054 8.31176 5.51883 8.34403 5.55951 8.38471L6.56226 9.38833L8.87751 7.07221C8.91815 7.03147 8.96642 6.99914 9.01958 6.97708C9.07273 6.95503 9.12971 6.94368 9.18726 6.94368C9.2448 6.94368 9.30178 6.95503 9.35493 6.97708C9.40809 6.99914 9.45637 7.03147 9.49701 7.07221Z" fill="#6C757D"/>
<path d="M3.06226 0.819458C3.17829 0.819458 3.28957 0.865552 3.37161 0.947599C3.45366 1.02965 3.49976 1.14093 3.49976 1.25696V1.69446H10.4998V1.25696C10.4998 1.14093 10.5458 1.02965 10.6279 0.947599C10.7099 0.865552 10.8212 0.819458 10.9373 0.819458C11.0533 0.819458 11.1646 0.865552 11.2466 0.947599C11.3287 1.02965 11.3748 1.14093 11.3748 1.25696V1.69446H12.2498C12.7139 1.69446 13.159 1.87883 13.4872 2.20702C13.8154 2.53521 13.9998 2.98033 13.9998 3.44446V13.0695C13.9998 13.5336 13.8154 13.9787 13.4872 14.3069C13.159 14.6351 12.7139 14.8195 12.2498 14.8195H1.74976C1.28563 14.8195 0.840508 14.6351 0.512319 14.3069C0.18413 13.9787 -0.000244141 13.5336 -0.000244141 13.0695V3.44446C-0.000244141 2.98033 0.18413 2.53521 0.512319 2.20702C0.840508 1.87883 1.28563 1.69446 1.74976 1.69446H2.62476V1.25696C2.62476 1.14093 2.67085 1.02965 2.7529 0.947599C2.83494 0.865552 2.94622 0.819458 3.06226 0.819458ZM0.874756 4.31946V13.0695C0.874756 13.3015 0.966943 13.5241 1.13104 13.6882C1.29513 13.8523 1.51769 13.9445 1.74976 13.9445H12.2498C12.4818 13.9445 12.7044 13.8523 12.8685 13.6882C13.0326 13.5241 13.1248 13.3015 13.1248 13.0695V4.31946H0.874756Z" fill="#6C757D"/>
</g>
<defs>
<clipPath id="clip0_101_3106">
<rect width="14" height="14" fill="white" transform="translate(0 0.820312)"/>
</clipPath>
</defs>
</svg>
