<svg width="14" height="15" viewBox="0 0 14 15" fill="none" xmlns="http://www.w3.org/2000/svg">
<path d="M6.99976 7.81946C7.69595 7.81946 8.36363 7.5429 8.85591 7.05061C9.34819 6.55833 9.62476 5.89065 9.62476 5.19446C9.62476 4.49826 9.34819 3.83059 8.85591 3.3383C8.36363 2.84602 7.69595 2.56946 6.99976 2.56946C6.30356 2.56946 5.63588 2.84602 5.1436 3.3383C4.65132 3.83059 4.37476 4.49826 4.37476 5.19446C4.37476 5.89065 4.65132 6.55833 5.1436 7.05061C5.63588 7.5429 6.30356 7.81946 6.99976 7.81946ZM8.74976 5.19446C8.74976 5.65859 8.56538 6.10371 8.23719 6.4319C7.909 6.76008 7.46388 6.94446 6.99976 6.94446C6.53563 6.94446 6.09051 6.76008 5.76232 6.4319C5.43413 6.10371 5.24976 5.65859 5.24976 5.19446C5.24976 4.73033 5.43413 4.28521 5.76232 3.95702C6.09051 3.62883 6.53563 3.44446 6.99976 3.44446C7.46388 3.44446 7.909 3.62883 8.23719 3.95702C8.56538 4.28521 8.74976 4.73033 8.74976 5.19446ZM12.2498 12.1945C12.2498 13.0695 11.3748 13.0695 11.3748 13.0695H2.62476C2.62476 13.0695 1.74976 13.0695 1.74976 12.1945C1.74976 11.3195 2.62476 8.69446 6.99976 8.69446C11.3748 8.69446 12.2498 11.3195 12.2498 12.1945ZM11.3748 12.191C11.3739 11.9757 11.24 11.3282 10.6468 10.735C10.0763 10.1645 9.00263 9.56946 6.99976 9.56946C4.99601 9.56946 3.92326 10.1645 3.35276 10.735C2.75951 11.3282 2.62651 11.9757 2.62476 12.191H11.3748Z" fill="#6C757D"/>
</svg>
