<svg width="14" height="12" viewBox="0 0 14 12" fill="none" xmlns="http://www.w3.org/2000/svg">
<path d="M-0.000244141 2.31946C-0.000244141 1.85533 0.18413 1.41021 0.512319 1.08202C0.840508 0.753832 1.28563 0.569458 1.74976 0.569458H12.2498C12.7139 0.569458 13.159 0.753832 13.4872 1.08202C13.8154 1.41021 13.9998 1.85533 13.9998 2.31946V9.31946C13.9998 9.78359 13.8154 10.2287 13.4872 10.5569C13.159 10.8851 12.7139 11.0695 12.2498 11.0695H1.74976C1.28563 11.0695 0.840508 10.8851 0.512319 10.5569C0.18413 10.2287 -0.000244141 9.78359 -0.000244141 9.31946V2.31946ZM1.74976 1.44446C1.51769 1.44446 1.29513 1.53665 1.13104 1.70074C0.966943 1.86483 0.874756 2.08739 0.874756 2.31946V2.50933L6.99976 6.18433L13.1248 2.50933V2.31946C13.1248 2.08739 13.0326 1.86483 12.8685 1.70074C12.7044 1.53665 12.4818 1.44446 12.2498 1.44446H1.74976ZM13.1248 3.52958L9.00526 6.00146L13.1248 8.53633V3.52958ZM13.095 9.54608L8.16001 6.50896L6.99976 7.20458L5.83951 6.50896L0.904506 9.54521C0.954228 9.73141 1.06403 9.89598 1.21687 10.0134C1.36971 10.1308 1.55703 10.1944 1.74976 10.1945H12.2498C12.4424 10.1945 12.6296 10.131 12.7824 10.0137C12.9352 9.8965 13.0451 9.73212 13.095 9.54608V9.54608ZM0.874756 8.53633L4.99426 6.00146L0.874756 3.52958V8.53633Z" fill="#6C757D"/>
</svg>
