<svg width="14" height="15" viewBox="0 0 14 15" fill="none" xmlns="http://www.w3.org/2000/svg">
<path d="M3.19693 1.98147C3.14528 1.91503 3.08007 1.86033 3.00566 1.82102C2.93124 1.78171 2.84931 1.75868 2.76531 1.75347C2.68131 1.74825 2.59716 1.76097 2.51845 1.79078C2.43974 1.82059 2.36828 1.8668 2.3088 1.92635L1.40405 2.83197C0.98143 3.25547 0.82568 3.85485 1.0103 4.38072C1.77658 6.55736 3.02306 8.53356 4.6573 10.1627C6.28649 11.7969 8.26268 13.0434 10.4393 13.8097C10.9652 13.9943 11.5646 13.8386 11.9881 13.416L12.8928 12.5112C12.9524 12.4517 12.9986 12.3803 13.0284 12.3016C13.0582 12.2229 13.0709 12.1387 13.0657 12.0547C13.0605 11.9707 13.0374 11.8888 12.9981 11.8144C12.9588 11.74 12.9041 11.6748 12.8377 11.6231L10.8191 10.0533C10.7481 9.99829 10.6655 9.96007 10.5776 9.94158C10.4897 9.92309 10.3987 9.9248 10.3116 9.9466L8.39531 10.4252C8.13952 10.4892 7.87155 10.4858 7.61747 10.4154C7.36339 10.345 7.13186 10.21 6.94543 10.0236L4.79643 7.87372C4.60985 7.68738 4.47472 7.45589 4.40418 7.20181C4.33364 6.94772 4.33011 6.6797 4.39393 6.42385L4.87343 4.5076C4.89522 4.42044 4.89694 4.32948 4.87845 4.24156C4.85996 4.15365 4.82174 4.07109 4.76668 4.0001L3.19693 1.98147ZM1.64818 1.2666C1.8013 1.11343 1.98525 0.994586 2.18783 0.917963C2.3904 0.84134 2.60695 0.808689 2.82311 0.822178C3.03927 0.835668 3.25009 0.894988 3.44156 0.996202C3.63304 1.09741 3.80079 1.2382 3.93368 1.40922L5.50343 3.42697C5.7913 3.7971 5.8928 4.27922 5.77905 4.73422L5.30043 6.65047C5.27568 6.74972 5.27702 6.85369 5.30431 6.95227C5.3316 7.05085 5.38392 7.1407 5.45618 7.2131L7.60605 9.36297C7.67854 9.43538 7.76854 9.48778 7.86729 9.51508C7.96604 9.54237 8.07017 9.54363 8.16955 9.51872L10.0849 9.0401C10.3095 8.98396 10.5438 8.9796 10.7703 9.02734C10.9968 9.07509 11.2094 9.17371 11.3922 9.31572L13.4099 10.8855C14.1353 11.4498 14.2018 12.5217 13.5526 13.1701L12.6478 14.0748C12.0003 14.7223 11.0326 15.0067 10.1304 14.6891C7.82147 13.8767 5.72504 12.5548 3.99668 10.8216C2.26356 9.09349 0.941712 6.99737 0.12918 4.68872C-0.18757 3.78747 0.0968047 2.81885 0.744305 2.17135L1.64905 1.2666H1.64818Z" fill="#6C757D"/>
</svg>
