<svg width="16" height="17" viewBox="0 0 16 17" fill="none" xmlns="http://www.w3.org/2000/svg">
<path d="M11.7417 11.1632C12.71 9.84188 13.1437 8.20368 12.956 6.57634C12.7683 4.949 11.9731 3.45253 10.7294 2.38632C9.48579 1.32011 7.88543 0.762796 6.24851 0.825869C4.6116 0.888942 3.05886 1.56775 1.90095 2.7265C0.743029 3.88525 0.0653277 5.43847 0.00342583 7.07543C-0.058476 8.71238 0.499986 10.3124 1.56708 11.5552C2.63418 12.7981 4.13122 13.5923 5.7587 13.7788C7.38617 13.9653 9.02406 13.5304 10.3447 12.5612H10.3437C10.3737 12.6012 10.4057 12.6392 10.4417 12.6762L14.2917 16.5262C14.4792 16.7138 14.7336 16.8193 14.9988 16.8194C15.2641 16.8195 15.5185 16.7142 15.7062 16.5267C15.8938 16.3392 15.9993 16.0848 15.9994 15.8195C15.9995 15.5543 15.8942 15.2998 15.7067 15.1122L11.8567 11.2622C11.8209 11.226 11.7825 11.1926 11.7417 11.1622V11.1632ZM11.9997 7.31919C11.9997 8.04146 11.8574 8.75666 11.581 9.42395C11.3046 10.0912 10.8995 10.6976 10.3888 11.2083C9.87804 11.719 9.27173 12.1241 8.60444 12.4005C7.93715 12.6769 7.22195 12.8192 6.49968 12.8192C5.77741 12.8192 5.06221 12.6769 4.39492 12.4005C3.72763 12.1241 3.12131 11.719 2.61059 11.2083C2.09987 10.6976 1.69474 10.0912 1.41834 9.42395C1.14194 8.75666 0.999677 8.04146 0.999677 7.31919C0.999677 5.8605 1.57914 4.46156 2.61059 3.43011C3.64204 2.39866 5.04099 1.81919 6.49968 1.81919C7.95837 1.81919 9.35731 2.39866 10.3888 3.43011C11.4202 4.46156 11.9997 5.8605 11.9997 7.31919Z" fill="white"/>
</svg>
